<?xml version="1.0"?>
<svg width="502" height="187.126008" viewBox="0 0 105.54202 93.563003" xmlns="http://www.w3.org/2000/svg">
<g transform="matrix(2.2144221,0,0,2.2144221,-81.759261,-2.8217048)" style="fill:#CE2F1F;">
 <path d="m 114.7,40.9 c 0.3,0 0.7,0 0.7,-0.4 0,-0.3 -0.3,-0.4 -0.6,-0.4 h -0.6 v 0.8 z m -0.5,1.4 h -0.4 v -2.6 h 1 c 0.6,0 1,0.2 1,0.7 0,0.5 -0.3,0.7 -0.7,0.7 l 0.8,1.1 h -0.5 l -0.7,-1.1 h -0.5 z m 0.5,0.6 c 1.1,0 1.9,-0.8 1.9,-1.9 0,-1.1 -0.8,-1.8 -1.9,-1.8 -1.1,0 -1.9,0.8 -1.9,1.8 0,1.1 0.9,1.9 1.9,1.9 m -2.3,-1.8 c 0,-1.3 1.1,-2.2 2.4,-2.2 1.3,0 2.4,0.9 2.4,2.2 0,1.3 -1.1,2.2 -2.4,2.2 -1.4,0 -2.4,-1 -2.4,-2.2" />
 <polygon points="100.9,13.8 115.5,10.6 117.2,1.6 103.3,1.6 " />
 <polygon points="114.4,18.7 99.5,22 95.4,43.2 109.6,43.3 " />
 <path d="M 33.4,26.3 C 31.9,32 25.7,33.4 21.3,31.5 16.9,29.6 18.2,23 20,18.6 c 2.4,-5.8 7.8,-8 12.3,-6.1 2.2,1 2.7,3.1 3.1,5.5 L 48.7,14.6 C 48.2,11.5 46.9,8.7 44.7,6.4 37.5,-1 23.6,0.1 13.6,8.9 3.6,17.9 1.3,31 8.5,38.4 c 7.2,7.4 21.1,6.3 31.1,-2.5 4.4,-3.8 7.3,-8.5 8.6,-13.2 z" />
 <path d="m 79.8,26.2 c -1.5,5.7 -7.7,7.1 -12.1,5.2 -4.4,-1.9 -3.1,-8.5 -1.3,-12.9 2.4,-5.8 7.8,-8 12.3,-6 2.2,1 2.7,3.1 3.1,5.5 L 95.1,14.6 C 94.6,11.5 93.3,8.7 91.1,6.4 84,-0.9 70.1,0.2 60.1,9 50.1,17.8 47.8,30.9 55,38.3 c 7.2,7.4 21.1,6.3 31.1,-2.5 4.4,-3.8 7.3,-8.5 8.6,-13.2 z" />
</g>
</svg>
